<svg id="레이어_1" data-name="레이어 1" xmlns="http://www.w3.org/2000/svg" viewBox="0 0 1366 768"><defs><style>.cls-1,.cls-2{fill:none;stroke:#121317;stroke-miterlimit:10;}.cls-1{stroke-width:2px;opacity:0.46;}.cls-2{stroke-width:4px;}</style></defs><title>grd대지 12</title><rect class="cls-1" x="-67" y="-7" width="93.94" height="97.88"/><rect class="cls-1" x="26.94" y="-7" width="93.94" height="97.88"/><rect class="cls-1" x="120.88" y="-7" width="93.94" height="97.88"/><rect class="cls-1" x="214.81" y="-7" width="93.94" height="97.88"/><rect class="cls-1" x="308.75" y="-7" width="93.94" height="97.88"/><rect class="cls-1" x="402.69" y="-7" width="93.94" height="97.88"/><rect class="cls-1" x="496.63" y="-7" width="93.94" height="97.88"/><rect class="cls-1" x="590.56" y="-7" width="93.94" height="97.88"/><rect class="cls-1" x="684.5" y="-7" width="93.94" height="97.88"/><rect class="cls-1" x="778.44" y="-7" width="93.94" height="97.88"/><rect class="cls-1" x="872.38" y="-7" width="93.94" height="97.88"/><rect class="cls-1" x="966.31" y="-7" width="93.94" height="97.88"/><rect class="cls-1" x="1060.25" y="-7" width="93.94" height="97.88"/><rect class="cls-1" x="1154.19" y="-7" width="93.94" height="97.88"/><rect class="cls-1" x="1248.13" y="-7" width="93.94" height="97.88"/><rect class="cls-1" x="1342.06" y="-7" width="93.94" height="97.88"/><rect class="cls-1" x="-67" y="90.88" width="93.94" height="97.88"/><rect class="cls-1" x="26.94" y="90.88" width="93.94" height="97.88"/><rect class="cls-1" x="120.88" y="90.88" width="93.94" height="97.88"/><rect class="cls-1" x="214.81" y="90.88" width="93.94" height="97.88"/><rect class="cls-1" x="308.75" y="90.88" width="93.94" height="97.88"/><rect class="cls-1" x="402.69" y="90.88" width="93.94" height="97.88"/><rect class="cls-1" x="496.63" y="90.88" width="93.94" height="97.88"/><rect class="cls-1" x="590.56" y="90.88" width="93.94" height="97.88"/><rect class="cls-1" x="684.5" y="90.88" width="93.94" height="97.88"/><rect class="cls-1" x="778.44" y="90.88" width="93.94" height="97.88"/><rect class="cls-1" x="872.38" y="90.88" width="93.94" height="97.88"/><rect class="cls-1" x="966.31" y="90.88" width="93.94" height="97.88"/><rect class="cls-1" x="1060.25" y="90.88" width="93.94" height="97.88"/><rect class="cls-1" x="1154.19" y="90.88" width="93.94" height="97.88"/><rect class="cls-1" x="1248.13" y="90.88" width="93.94" height="97.88"/><rect class="cls-1" x="1342.06" y="90.88" width="93.94" height="97.88"/><rect class="cls-1" x="-67" y="188.75" width="93.94" height="97.88"/><rect class="cls-1" x="26.94" y="188.75" width="93.94" height="97.88"/><rect class="cls-1" x="120.88" y="188.75" width="93.94" height="97.88"/><rect class="cls-1" x="214.81" y="188.75" width="93.94" height="97.88"/><rect class="cls-1" x="308.75" y="188.75" width="93.94" height="97.88"/><rect class="cls-1" x="402.69" y="188.75" width="93.94" height="97.88"/><rect class="cls-1" x="496.63" y="188.75" width="93.94" height="97.88"/><rect class="cls-1" x="590.56" y="188.75" width="93.94" height="97.88"/><rect class="cls-1" x="684.5" y="188.75" width="93.94" height="97.88"/><rect class="cls-1" x="778.44" y="188.75" width="93.94" height="97.88"/><rect class="cls-1" x="872.38" y="188.75" width="93.94" height="97.88"/><rect class="cls-1" x="966.31" y="188.75" width="93.94" height="97.88"/><rect class="cls-1" x="1060.25" y="188.75" width="93.94" height="97.88"/><rect class="cls-1" x="1154.19" y="188.75" width="93.94" height="97.88"/><rect class="cls-1" x="1248.13" y="188.75" width="93.94" height="97.88"/><rect class="cls-1" x="1342.06" y="188.75" width="93.94" height="97.88"/><rect class="cls-1" x="-67" y="286.63" width="93.94" height="97.88"/><rect class="cls-1" x="26.94" y="286.63" width="93.94" height="97.88"/><rect class="cls-1" x="120.88" y="286.63" width="93.94" height="97.88"/><rect class="cls-1" x="214.81" y="286.63" width="93.94" height="97.88"/><rect class="cls-1" x="308.75" y="286.63" width="93.94" height="97.88"/><rect class="cls-1" x="402.69" y="286.63" width="93.94" height="97.88"/><rect class="cls-1" x="496.63" y="286.63" width="93.94" height="97.88"/><rect class="cls-1" x="590.56" y="286.63" width="93.94" height="97.88"/><rect class="cls-1" x="684.5" y="286.63" width="93.94" height="97.88"/><rect class="cls-1" x="778.44" y="286.63" width="93.94" height="97.88"/><rect class="cls-1" x="872.38" y="286.63" width="93.94" height="97.88"/><rect class="cls-1" x="966.31" y="286.63" width="93.94" height="97.88"/><rect class="cls-1" x="1060.25" y="286.63" width="93.94" height="97.88"/><rect class="cls-1" x="1154.19" y="286.63" width="93.94" height="97.88"/><rect class="cls-1" x="1248.13" y="286.63" width="93.94" height="97.88"/><rect class="cls-1" x="1342.06" y="286.63" width="93.94" height="97.88"/><rect class="cls-1" x="-67" y="384.5" width="93.94" height="97.88"/><rect class="cls-1" x="26.94" y="384.5" width="93.94" height="97.88"/><rect class="cls-1" x="120.88" y="384.5" width="93.94" height="97.88"/><rect class="cls-1" x="214.81" y="384.5" width="93.94" height="97.88"/><rect class="cls-1" x="308.75" y="384.5" width="93.94" height="97.88"/><rect class="cls-1" x="402.69" y="384.5" width="93.94" height="97.88"/><rect class="cls-1" x="496.63" y="384.5" width="93.94" height="97.88"/><rect class="cls-1" x="590.56" y="384.5" width="93.94" height="97.88"/><rect class="cls-1" x="684.5" y="384.5" width="93.94" height="97.88"/><rect class="cls-1" x="778.44" y="384.5" width="93.94" height="97.88"/><rect class="cls-1" x="872.38" y="384.5" width="93.94" height="97.88"/><rect class="cls-1" x="966.31" y="384.5" width="93.94" height="97.88"/><rect class="cls-1" x="1060.25" y="384.5" width="93.94" height="97.88"/><rect class="cls-1" x="1154.19" y="384.5" width="93.94" height="97.88"/><rect class="cls-1" x="1248.13" y="384.5" width="93.94" height="97.88"/><rect class="cls-1" x="1342.06" y="384.5" width="93.94" height="97.88"/><rect class="cls-1" x="-67" y="482.38" width="93.94" height="97.88"/><rect class="cls-1" x="26.94" y="482.38" width="93.94" height="97.88"/><rect class="cls-1" x="120.88" y="482.38" width="93.94" height="97.88"/><rect class="cls-1" x="214.81" y="482.38" width="93.94" height="97.88"/><rect class="cls-1" x="308.75" y="482.38" width="93.94" height="97.88"/><rect class="cls-1" x="402.69" y="482.38" width="93.94" height="97.88"/><rect class="cls-1" x="496.63" y="482.38" width="93.94" height="97.88"/><rect class="cls-1" x="590.56" y="482.38" width="93.94" height="97.88"/><rect class="cls-1" x="684.5" y="482.38" width="93.94" height="97.88"/><rect class="cls-1" x="778.44" y="482.38" width="93.94" height="97.88"/><rect class="cls-1" x="872.38" y="482.38" width="93.94" height="97.88"/><rect class="cls-1" x="966.31" y="482.38" width="93.94" height="97.88"/><rect class="cls-1" x="1060.25" y="482.38" width="93.94" height="97.88"/><rect class="cls-1" x="1154.19" y="482.38" width="93.94" height="97.88"/><rect class="cls-1" x="1248.13" y="482.38" width="93.94" height="97.88"/><rect class="cls-1" x="1342.06" y="482.38" width="93.94" height="97.88"/><rect class="cls-1" x="-67" y="580.25" width="93.94" height="97.88"/><rect class="cls-1" x="26.94" y="580.25" width="93.94" height="97.88"/><rect class="cls-1" x="120.88" y="580.25" width="93.94" height="97.88"/><rect class="cls-1" x="214.81" y="580.25" width="93.94" height="97.88"/><rect class="cls-1" x="308.75" y="580.25" width="93.94" height="97.88"/><rect class="cls-1" x="402.69" y="580.25" width="93.94" height="97.88"/><rect class="cls-1" x="496.63" y="580.25" width="93.94" height="97.88"/><rect class="cls-1" x="590.56" y="580.25" width="93.94" height="97.88"/><rect class="cls-1" x="684.5" y="580.25" width="93.94" height="97.88"/><rect class="cls-1" x="778.44" y="580.25" width="93.94" height="97.88"/><rect class="cls-1" x="872.38" y="580.25" width="93.94" height="97.88"/><rect class="cls-1" x="966.31" y="580.25" width="93.94" height="97.88"/><rect class="cls-1" x="1060.25" y="580.25" width="93.94" height="97.88"/><rect class="cls-1" x="1154.19" y="580.25" width="93.94" height="97.88"/><rect class="cls-1" x="1248.13" y="580.25" width="93.94" height="97.88"/><rect class="cls-1" x="1342.06" y="580.25" width="93.94" height="97.88"/><rect class="cls-1" x="-67" y="678.13" width="93.94" height="97.88"/><rect class="cls-1" x="26.94" y="678.13" width="93.94" height="97.88"/><rect class="cls-1" x="120.88" y="678.13" width="93.94" height="97.88"/><rect class="cls-1" x="214.81" y="678.13" width="93.94" height="97.88"/><rect class="cls-1" x="308.75" y="678.13" width="93.94" height="97.88"/><rect class="cls-1" x="402.69" y="678.13" width="93.94" height="97.88"/><rect class="cls-1" x="496.63" y="678.13" width="93.94" height="97.88"/><rect class="cls-1" x="590.56" y="678.13" width="93.94" height="97.88"/><rect class="cls-1" x="684.5" y="678.13" width="93.94" height="97.88"/><rect class="cls-1" x="778.44" y="678.13" width="93.94" height="97.88"/><rect class="cls-1" x="872.38" y="678.13" width="93.94" height="97.88"/><rect class="cls-1" x="966.31" y="678.13" width="93.94" height="97.88"/><rect class="cls-1" x="1060.25" y="678.13" width="93.94" height="97.88"/><rect class="cls-1" x="1154.19" y="678.13" width="93.94" height="97.88"/><rect class="cls-1" x="1248.13" y="678.13" width="93.94" height="97.88"/><rect class="cls-1" x="1342.06" y="678.13" width="93.94" height="97.88"/><line class="cls-2" x1="683" y1="-31" x2="683" y2="800"/><line class="cls-2" x1="1402" y1="385" x2="-20" y2="383"/></svg>